<mxfile host="app.diagrams.net" agent="Mozilla/5.0 (X11; Linux x86_64) AppleWebKit/537.36 (KHTML, like Gecko) Chrome/133.0.0.0 Safari/537.36" version="26.1.0">
  <diagram name="Página-1" id="kI8GGxKT4JiShN3eqnU-">
    <mxGraphModel dx="3731" dy="1593" grid="1" gridSize="10" guides="1" tooltips="1" connect="1" arrows="1" fold="1" page="1" pageScale="1" pageWidth="827" pageHeight="1169" math="0" shadow="0">
      <root>
        <mxCell id="0" />
        <mxCell id="1" parent="0" />
        <mxCell id="aFHb7xdQclZGv5Pusras-11" value="" style="group" vertex="1" connectable="0" parent="1">
          <mxGeometry x="-500" y="30" width="200" height="120" as="geometry" />
        </mxCell>
        <mxCell id="aFHb7xdQclZGv5Pusras-6" value="" style="group" vertex="1" connectable="0" parent="aFHb7xdQclZGv5Pusras-11">
          <mxGeometry x="80" width="120" height="120" as="geometry" />
        </mxCell>
        <mxCell id="aFHb7xdQclZGv5Pusras-3" value="" style="shape=image;verticalLabelPosition=bottom;labelBackgroundColor=default;verticalAlign=top;aspect=fixed;imageAspect=0;image=https://images.vexels.com/media/users/3/208104/isolated/preview/0ec1c3524475f9562903f47771d2736b-ilustracao-de-dispositivo-de-celular.png;" vertex="1" parent="aFHb7xdQclZGv5Pusras-6">
          <mxGeometry width="120" height="120" as="geometry" />
        </mxCell>
        <mxCell id="aFHb7xdQclZGv5Pusras-5" value="&lt;font style=&quot;color: light-dark(rgb(0, 0, 0), rgb(0, 0, 0));&quot;&gt;Mobile&lt;/font&gt;" style="text;html=1;align=center;verticalAlign=middle;whiteSpace=wrap;rounded=0;" vertex="1" parent="aFHb7xdQclZGv5Pusras-6">
          <mxGeometry x="30" y="45" width="60" height="30" as="geometry" />
        </mxCell>
        <mxCell id="aFHb7xdQclZGv5Pusras-8" style="edgeStyle=orthogonalEdgeStyle;rounded=0;orthogonalLoop=1;jettySize=auto;html=1;exitX=1;exitY=0.3333333333333333;exitDx=0;exitDy=0;exitPerimeter=0;entryX=0;entryY=0.5;entryDx=0;entryDy=0;" edge="1" parent="aFHb7xdQclZGv5Pusras-11" source="aFHb7xdQclZGv5Pusras-7" target="aFHb7xdQclZGv5Pusras-5">
          <mxGeometry relative="1" as="geometry" />
        </mxCell>
        <mxCell id="aFHb7xdQclZGv5Pusras-7" value="Responsável" style="shape=umlActor;verticalLabelPosition=bottom;verticalAlign=top;html=1;outlineConnect=0;" vertex="1" parent="aFHb7xdQclZGv5Pusras-11">
          <mxGeometry y="40" width="30" height="60" as="geometry" />
        </mxCell>
        <mxCell id="aFHb7xdQclZGv5Pusras-14" style="edgeStyle=orthogonalEdgeStyle;rounded=0;orthogonalLoop=1;jettySize=auto;html=1;" edge="1" parent="1" source="aFHb7xdQclZGv5Pusras-12" target="aFHb7xdQclZGv5Pusras-3">
          <mxGeometry relative="1" as="geometry">
            <Array as="points">
              <mxPoint x="-417" y="130" />
              <mxPoint x="-417" y="130" />
            </Array>
          </mxGeometry>
        </mxCell>
        <mxCell id="aFHb7xdQclZGv5Pusras-19" style="edgeStyle=orthogonalEdgeStyle;rounded=0;orthogonalLoop=1;jettySize=auto;html=1;" edge="1" parent="1" source="aFHb7xdQclZGv5Pusras-12" target="aFHb7xdQclZGv5Pusras-16">
          <mxGeometry relative="1" as="geometry" />
        </mxCell>
        <mxCell id="aFHb7xdQclZGv5Pusras-12" value="&lt;font style=&quot;font-size: 18px; color: light-dark(rgb(0, 0, 0), rgb(255, 255, 255));&quot;&gt;&lt;b&gt;Login&lt;/b&gt;&lt;/font&gt;" style="rounded=1;whiteSpace=wrap;html=1;fillColor=#60a917;fontColor=#ffffff;strokeColor=#2D7600;" vertex="1" parent="1">
          <mxGeometry x="-477" y="180" width="120" height="60" as="geometry" />
        </mxCell>
        <mxCell id="aFHb7xdQclZGv5Pusras-23" style="edgeStyle=orthogonalEdgeStyle;rounded=0;orthogonalLoop=1;jettySize=auto;html=1;" edge="1" parent="1" source="aFHb7xdQclZGv5Pusras-16" target="aFHb7xdQclZGv5Pusras-22">
          <mxGeometry relative="1" as="geometry" />
        </mxCell>
        <mxCell id="aFHb7xdQclZGv5Pusras-16" value="&lt;font style=&quot;font-size: 18px; color: light-dark(rgb(0, 0, 0), rgb(255, 255, 255));&quot;&gt;&lt;b&gt;Inicio&lt;/b&gt;&lt;/font&gt;" style="rounded=1;whiteSpace=wrap;html=1;fillColor=#0050ef;fontColor=#ffffff;strokeColor=#001DBC;" vertex="1" parent="1">
          <mxGeometry x="-477" y="280" width="120" height="60" as="geometry" />
        </mxCell>
        <mxCell id="aFHb7xdQclZGv5Pusras-22" value="" style="rounded=1;whiteSpace=wrap;html=1;" vertex="1" parent="1">
          <mxGeometry x="-797" y="380" width="760" height="30" as="geometry" />
        </mxCell>
        <mxCell id="aFHb7xdQclZGv5Pusras-24" value="Entrada/Saida" style="rounded=1;whiteSpace=wrap;html=1;" vertex="1" parent="1">
          <mxGeometry x="-790" y="470" width="110" height="50" as="geometry" />
        </mxCell>
        <mxCell id="aFHb7xdQclZGv5Pusras-25" style="edgeStyle=orthogonalEdgeStyle;rounded=0;orthogonalLoop=1;jettySize=auto;html=1;entryX=0.078;entryY=0.978;entryDx=0;entryDy=0;entryPerimeter=0;" edge="1" parent="1" source="aFHb7xdQclZGv5Pusras-24" target="aFHb7xdQclZGv5Pusras-22">
          <mxGeometry relative="1" as="geometry" />
        </mxCell>
      </root>
    </mxGraphModel>
  </diagram>
</mxfile>
